<svg xmlns="http://www.w3.org/2000/svg" width="128" height="128" viewBox="0 0 128 128" role="img" aria-label="yarn-ball.svg">
  <defs>
    <filter id="softShadow" x="-20%" y="-20%" width="140%" height="140%"><feDropShadow dx="0" dy="5" stdDeviation="5" flood-color="#4a2f24" flood-opacity="0.18"/></filter>
    <linearGradient id="creamGrad" x1="0" y1="0" x2="0" y2="1"><stop offset="0%" stop-color="#fffdf7"/><stop offset="100%" stop-color="#fff3e4"/></linearGradient>
    <linearGradient id="tealGrad" x1="0" y1="0" x2="1" y2="1"><stop offset="0%" stop-color="#52bbb6"/><stop offset="100%" stop-color="#237a76"/></linearGradient>
    <linearGradient id="goldGrad" x1="0" y1="0" x2="0" y2="1"><stop offset="0%" stop-color="#ffe28a"/><stop offset="100%" stop-color="#ffc94d"/></linearGradient>
    <linearGradient id="pinkGrad" x1="0" y1="0" x2="0" y2="1"><stop offset="0%" stop-color="#ffd8c7"/><stop offset="100%" stop-color="#ffaaa0"/></linearGradient>
  </defs>
  <circle cx="64" cy="64" r="46" fill="url(#pinkGrad)" stroke="#4a2f24" stroke-width="4" filter="url(#softShadow)"/><path d="M26 64 C46 42 78 35 103 47 M25 79 C55 52 81 52 105 70 M39 101 C49 69 74 44 91 29 M25 50 C54 67 74 86 84 106 M48 25 C72 51 83 74 81 107" fill="none" stroke="#c87572" stroke-width="5" stroke-linecap="round" opacity="0.65"/><path d="M99 86 C116 91 111 111 124 115" fill="none" stroke="#c87572" stroke-width="5" stroke-linecap="round"/>
</svg>