<svg xmlns="http://www.w3.org/2000/svg" width="128" height="128" viewBox="0 0 128 128" role="img" aria-label="book.svg">
  <defs>
    <filter id="softShadow" x="-20%" y="-20%" width="140%" height="140%"><feDropShadow dx="0" dy="5" stdDeviation="5" flood-color="#4a2f24" flood-opacity="0.18"/></filter>
    <linearGradient id="creamGrad" x1="0" y1="0" x2="0" y2="1"><stop offset="0%" stop-color="#fffdf7"/><stop offset="100%" stop-color="#fff3e4"/></linearGradient>
    <linearGradient id="tealGrad" x1="0" y1="0" x2="1" y2="1"><stop offset="0%" stop-color="#52bbb6"/><stop offset="100%" stop-color="#237a76"/></linearGradient>
    <linearGradient id="goldGrad" x1="0" y1="0" x2="0" y2="1"><stop offset="0%" stop-color="#ffe28a"/><stop offset="100%" stop-color="#ffc94d"/></linearGradient>
    <linearGradient id="pinkGrad" x1="0" y1="0" x2="0" y2="1"><stop offset="0%" stop-color="#ffd8c7"/><stop offset="100%" stop-color="#ffaaa0"/></linearGradient>
  </defs>
  <path d="M22 29 C38 23 51 25 64 36 V101 C51 90 38 88 22 94 Z" fill="#fff8ec" stroke="#4a2f24" stroke-width="5" stroke-linejoin="round"/><path d="M106 29 C90 23 77 25 64 36 V101 C77 90 90 88 106 94 Z" fill="#ffd8c7" stroke="#4a2f24" stroke-width="5" stroke-linejoin="round"/><path d="M64 36 V101" stroke="#4a2f24" stroke-width="4"/><path d="M33 43 C43 40 51 42 57 47 M76 47 C84 42 93 40 99 43" stroke="#8a6b5b" stroke-width="4" stroke-linecap="round"/>
</svg>
