<svg xmlns="http://www.w3.org/2000/svg" width="128" height="128" viewBox="0 0 128 128" role="img" aria-label="gear.svg">
  <defs>
    <filter id="softShadow" x="-20%" y="-20%" width="140%" height="140%"><feDropShadow dx="0" dy="5" stdDeviation="5" flood-color="#4a2f24" flood-opacity="0.18"/></filter>
    <linearGradient id="creamGrad" x1="0" y1="0" x2="0" y2="1"><stop offset="0%" stop-color="#fffdf7"/><stop offset="100%" stop-color="#fff3e4"/></linearGradient>
    <linearGradient id="tealGrad" x1="0" y1="0" x2="1" y2="1"><stop offset="0%" stop-color="#52bbb6"/><stop offset="100%" stop-color="#237a76"/></linearGradient>
    <linearGradient id="goldGrad" x1="0" y1="0" x2="0" y2="1"><stop offset="0%" stop-color="#ffe28a"/><stop offset="100%" stop-color="#ffc94d"/></linearGradient>
    <linearGradient id="pinkGrad" x1="0" y1="0" x2="0" y2="1"><stop offset="0%" stop-color="#ffd8c7"/><stop offset="100%" stop-color="#ffaaa0"/></linearGradient>
  </defs>
  <circle cx="64" cy="64" r="45" fill="url(#creamGrad)" stroke="#dfb98f" stroke-width="5" filter="url(#softShadow)"/><path d="M64 32 L70 39 L80 36 L84 46 L94 50 L91 61 L96 69 L88 76 L88 87 L77 90 L70 98 L60 93 L50 96 L44 86 L34 82 L37 70 L32 62 L40 55 L40 44 L51 41 Z" fill="#8a6b5b" stroke="#4a2f24" stroke-width="4" stroke-linejoin="round"/><circle cx="64" cy="64" r="14" fill="#fff8ec" stroke="#4a2f24" stroke-width="4"/>
</svg>
