<svg xmlns="http://www.w3.org/2000/svg" width="128" height="128" viewBox="0 0 128 128" role="img" aria-label="lightbulb-cat.svg">
  <defs>
    <filter id="softShadow" x="-20%" y="-20%" width="140%" height="140%"><feDropShadow dx="0" dy="5" stdDeviation="5" flood-color="#4a2f24" flood-opacity="0.18"/></filter>
    <linearGradient id="creamGrad" x1="0" y1="0" x2="0" y2="1"><stop offset="0%" stop-color="#fffdf7"/><stop offset="100%" stop-color="#fff3e4"/></linearGradient>
    <linearGradient id="tealGrad" x1="0" y1="0" x2="1" y2="1"><stop offset="0%" stop-color="#52bbb6"/><stop offset="100%" stop-color="#237a76"/></linearGradient>
    <linearGradient id="goldGrad" x1="0" y1="0" x2="0" y2="1"><stop offset="0%" stop-color="#ffe28a"/><stop offset="100%" stop-color="#ffc94d"/></linearGradient>
    <linearGradient id="pinkGrad" x1="0" y1="0" x2="0" y2="1"><stop offset="0%" stop-color="#ffd8c7"/><stop offset="100%" stop-color="#ffaaa0"/></linearGradient>
  </defs>
  <path d="M43 59 C43 39 57 28 64 28 C71 28 85 39 85 59 C85 73 74 80 74 89 H54 C54 80 43 73 43 59 Z" fill="url(#goldGrad)" stroke="#4a2f24" stroke-width="5" filter="url(#softShadow)"/><path d="M51 40 L48 25 L60 36 M77 40 L80 25 L68 36" fill="#ffd8c7" stroke="#4a2f24" stroke-width="4" stroke-linejoin="round"/><path d="M54 90 H74 M56 101 H72" stroke="#4a2f24" stroke-width="5" stroke-linecap="round"/><path d="M23 59 H33 M95 59 H105 M32 33 L39 40 M89 40 L96 33" stroke="#ffc94d" stroke-width="6" stroke-linecap="round"/>
</svg>