<svg xmlns="http://www.w3.org/2000/svg" width="128" height="128" viewBox="0 0 128 128" role="img" aria-label="yarn-wheel-ring.svg">
  <defs>
    <filter id="softShadow" x="-20%" y="-20%" width="140%" height="140%"><feDropShadow dx="0" dy="5" stdDeviation="5" flood-color="#4a2f24" flood-opacity="0.18"/></filter>
    <linearGradient id="creamGrad" x1="0" y1="0" x2="0" y2="1"><stop offset="0%" stop-color="#fffdf7"/><stop offset="100%" stop-color="#fff3e4"/></linearGradient>
    <linearGradient id="tealGrad" x1="0" y1="0" x2="1" y2="1"><stop offset="0%" stop-color="#52bbb6"/><stop offset="100%" stop-color="#237a76"/></linearGradient>
    <linearGradient id="goldGrad" x1="0" y1="0" x2="0" y2="1"><stop offset="0%" stop-color="#ffe28a"/><stop offset="100%" stop-color="#ffc94d"/></linearGradient>
    <linearGradient id="pinkGrad" x1="0" y1="0" x2="0" y2="1"><stop offset="0%" stop-color="#ffd8c7"/><stop offset="100%" stop-color="#ffaaa0"/></linearGradient>
  </defs>
  <circle cx="64" cy="64" r="48" fill="none" stroke="#dfb98f" stroke-width="13" filter="url(#softShadow)"/><path d="M17 65 C42 43 84 43 111 63 M29 99 C55 79 82 79 101 97 M31 30 C54 52 73 76 82 110" fill="none" stroke="#ffaaa0" stroke-width="5" stroke-linecap="round"/><path d="M68 16 C82 40 93 65 92 101 M18 58 C47 71 78 82 108 75" fill="none" stroke="#3aa7a3" stroke-width="5" stroke-linecap="round" opacity=".75"/><circle cx="64" cy="64" r="31" fill="none" stroke="#3aa7a3" stroke-width="4" stroke-dasharray="8 8" opacity=".6"/>
</svg>