<svg xmlns="http://www.w3.org/2000/svg" width="128" height="128" viewBox="0 0 128 128" role="img" aria-label="plant.svg">
  <defs>
    <filter id="softShadow" x="-20%" y="-20%" width="140%" height="140%"><feDropShadow dx="0" dy="5" stdDeviation="5" flood-color="#4a2f24" flood-opacity="0.18"/></filter>
    <linearGradient id="creamGrad" x1="0" y1="0" x2="0" y2="1"><stop offset="0%" stop-color="#fffdf7"/><stop offset="100%" stop-color="#fff3e4"/></linearGradient>
    <linearGradient id="tealGrad" x1="0" y1="0" x2="1" y2="1"><stop offset="0%" stop-color="#52bbb6"/><stop offset="100%" stop-color="#237a76"/></linearGradient>
    <linearGradient id="goldGrad" x1="0" y1="0" x2="0" y2="1"><stop offset="0%" stop-color="#ffe28a"/><stop offset="100%" stop-color="#ffc94d"/></linearGradient>
    <linearGradient id="pinkGrad" x1="0" y1="0" x2="0" y2="1"><stop offset="0%" stop-color="#ffd8c7"/><stop offset="100%" stop-color="#ffaaa0"/></linearGradient>
  </defs>
  <path d="M48 113 H84 L91 66 H41 Z" fill="#ffd8c7" stroke="#4a2f24" stroke-width="5" stroke-linejoin="round"/><path d="M65 68 C47 56 46 35 61 22 C72 39 75 57 65 68 Z" fill="#3aa7a3" stroke="#237a76" stroke-width="4"/><path d="M66 69 C82 52 102 52 110 67 C90 79 75 78 66 69 Z" fill="#52bbb6" stroke="#237a76" stroke-width="4"/><path d="M60 71 C44 72 28 63 22 47 C42 43 56 52 60 71 Z" fill="#52bbb6" stroke="#237a76" stroke-width="4"/>
</svg>
